<?xml version="1.0" encoding="utf-8"?>
<!-- Generator: Adobe Illustrator 16.0.3, SVG Export Plug-In . SVG Version: 6.00 Build 0)  -->
<!DOCTYPE svg PUBLIC "-//W3C//DTD SVG 1.1//EN" "http://www.w3.org/Graphics/SVG/1.1/DTD/svg11.dtd">
<svg version="1.1" id="Layer_1" xmlns="http://www.w3.org/2000/svg" xmlns:xlink="http://www.w3.org/1999/xlink" x="0px" y="0px"
	 width="800px" height="800px" viewBox="0 0 800 800" enable-background="new 0 0 800 800" xml:space="preserve">
<g>
	<path fill="#FFFFFF" stroke="#FFFFFF" stroke-miterlimit="10" d="M112.223,443.338h-14.97v-71.289h19.146
		c1.968,0,4.107,0.018,6.416,0.051c2.307,0.035,4.379,0.119,6.212,0.254c1.9,0.138,3.683,0.374,5.347,0.713
		c1.663,0.341,3.208,0.748,4.634,1.223c6.45,2.309,10.727,6.146,12.832,11.508c0.135,0.341,0.254,0.68,0.356,1.019
		c0.102,0.341,0.22,0.68,0.356,1.019c0.135,0.61,0.271,1.206,0.407,1.782c0.135,0.577,0.237,1.206,0.306,1.884
		c0.204,1.019,0.306,2.072,0.306,3.157v1.019c-0.137,4.956-1.393,9.302-3.768,13.035l-0.306,0.408l-4.074-2.445l0.407-0.508
		c1.9-3.191,2.852-6.722,2.852-10.592v-0.713c0-0.474-0.017-0.916-0.051-1.323c-0.035-0.407-0.086-0.849-0.153-1.324
		c-0.137-1.019-0.34-1.969-0.611-2.852c-0.068-0.475-0.239-1.019-0.509-1.63c-1.766-4.412-5.161-7.536-10.184-9.369
		c-2.444-0.881-5.397-1.492-8.86-1.833c-0.814-0.066-1.731-0.117-2.75-0.152c-1.019-0.034-2.054-0.051-3.106-0.051
		c-1.054,0-2.105,0-3.157,0c-1.053,0-2.021,0-2.902,0h-4.379h-8.249v28.515h1.426h5.805V378.16h16.702
		c2.987,0.203,5.838,0.883,8.555,2.036c4.344,1.767,7.264,4.618,8.758,8.555c0.135,0.272,0.22,0.51,0.254,0.713
		c0.034,0.204,0.118,0.442,0.255,0.713c0.135,0.407,0.219,0.832,0.254,1.273c0.034,0.442,0.118,0.865,0.255,1.272
		c0.066,0.341,0.102,0.713,0.102,1.121c0,0.407,0,0.814,0,1.222v0.509c0,3.463-0.781,6.553-2.342,9.268
		c-0.544,0.883-1.222,1.799-2.037,2.75c-0.815,0.951-1.833,1.816-3.055,2.596c-1.222,0.781-2.683,1.443-4.379,1.986
		c-1.698,0.545-3.666,0.85-5.907,0.916c-0.476,0-1.104,0.018-1.884,0.053c-0.781,0.033-1.749,0.051-2.902,0.051h-5.194
		c-0.814,0-1.629-0.035-2.444-0.104h-0.611v-7.025h-3.157V443.338z M98.373,442.115h12.628v-36.051h-5.805h-2.648v-30.96h17.415
		c1.493,0,2.987,0.018,4.481,0.051c1.493,0.035,2.816,0.086,3.972,0.153c1.765,0.137,3.412,0.374,4.939,0.713
		c1.527,0.34,2.936,0.748,4.226,1.222c5.296,1.901,8.927,5.263,10.897,10.082c0.271,0.611,0.441,1.189,0.509,1.731
		c0.271,0.884,0.474,1.901,0.611,3.056c0.135,0.407,0.204,0.832,0.204,1.272c0,0.442,0.033,0.935,0.102,1.477v0.713
		c-0.137,4.074-1.053,7.639-2.75,10.694l1.935,1.223c2.172-3.395,3.259-7.367,3.259-11.917v-0.814c0-0.543-0.018-1.069-0.051-1.578
		c-0.035-0.51-0.086-1.034-0.153-1.579c-0.137-0.61-0.255-1.187-0.356-1.731c-0.102-0.542-0.221-1.085-0.356-1.629
		c-0.137-0.339-0.255-0.678-0.356-1.019c-0.102-0.339-0.221-0.645-0.356-0.917c-2.037-5.158-6.077-8.758-12.119-10.795
		c-2.648-0.95-5.874-1.594-9.675-1.935c-1.833-0.136-3.888-0.22-6.162-0.255c-2.275-0.033-4.396-0.051-6.365-0.051H98.373V442.115z
		 M116.602,411.869c0.611,0,1.594,0.018,2.953,0.051c1.357,0.035,2.715,0.051,4.074,0.051c1.154,0,2.104,0,2.852,0
		c0.747,0,1.391-0.033,1.935-0.102c2.104-0.066,3.937-0.357,5.5-0.865c1.561-0.51,2.918-1.121,4.074-1.834
		c1.153-0.713,2.121-1.51,2.902-2.393c0.78-0.883,1.408-1.732,1.884-2.547c0.747-1.223,1.289-2.58,1.629-4.074
		c0.339-1.492,0.543-3.02,0.611-4.583c0-0.203-0.035-0.372-0.102-0.509c0-0.339,0-0.695,0-1.069c0-0.372-0.035-0.729-0.102-1.069
		c-0.068-0.678-0.239-1.459-0.509-2.343c-0.137-0.678-0.272-1.153-0.407-1.426c-1.426-3.598-4.109-6.212-8.045-7.841
		c-1.426-0.543-2.801-0.983-4.125-1.324c-1.324-0.339-2.666-0.576-4.023-0.713h-15.48v25.562h3.157v-19.146h0.611
		c2.852,0,5.143,0,6.875,0s2.868,0.035,3.412,0.102c2.58,0.204,4.751,0.85,6.518,1.935c2.714,1.698,4.073,4.312,4.073,7.842
		c0.067,1.426-0.17,2.887-0.713,4.38c-1.562,3.869-4.753,5.906-9.573,6.111h-6.212h-3.768V411.869z M116.602,404.842h3.768h6.212
		c2.648-0.066,4.599-0.678,5.856-1.834c1.255-1.152,2.121-2.307,2.597-3.461c0.474-1.154,0.713-2.444,0.713-3.87v-0.103
		c-0.137-3.19-1.324-5.464-3.564-6.823c-1.562-0.949-3.564-1.527-6.009-1.731c-0.34-0.066-1.188-0.102-2.546-0.102
		c-1.359,0-3.701,0-7.027,0V404.842z"/>
</g>
<g>
	<path fill="#FFFFFF" stroke="#FFFFFF" stroke-miterlimit="10" d="M229.059,407.285v0.51c0,4.955-0.934,9.572-2.801,13.85
		c-1.868,4.277-4.43,8.045-7.689,11.305c-3.259,3.258-7.027,5.805-11.304,7.637c-4.277,1.834-8.895,2.75-13.85,2.75
		c-4.889,0-9.506-0.932-13.851-2.801c-4.346-1.865-8.131-4.412-11.355-7.637c-3.226-3.225-5.771-7.01-7.638-11.355
		c-1.868-4.344-2.801-8.963-2.801-13.852c0-6.924,1.867-13.34,5.602-19.248l0.407-0.509l3.462,2.24
		c1.085-1.629,2.376-3.224,3.87-4.786c3.937-3.802,8.486-6.482,13.646-8.046l-1.12-3.972l0.611-0.102
		c2.918-0.814,5.974-1.222,9.166-1.222c4.751,0,9.403,0.951,13.952,2.852c0.474,0.203,1.018,0.458,1.629,0.764
		c0.611,0.306,1.205,0.628,1.782,0.967c0.576,0.341,1.103,0.646,1.579,0.917c0.474,0.272,0.779,0.476,0.917,0.611
		c-0.068,0.068-0.137,0.152-0.204,0.254c-0.069,0.103-0.341,0.494-0.815,1.172l-1.426,1.935c1.765,1.222,3.326,2.513,4.685,3.87
		l0.204,0.203c1.765,1.767,3.259,3.667,4.481,5.703l0.305,0.611l-3.157,1.527l-0.306-0.407c-1.155-1.899-2.479-3.598-3.972-5.092
		c-1.426-1.426-2.852-2.613-4.277-3.564l-4.685,6.518l-0.509-0.306c-1.563-0.949-3.226-1.645-4.99-2.087
		c-1.767-0.441-3.564-0.662-5.397-0.662c-3.328,0-6.434,0.748-9.319,2.24c-2.886,1.494-5.313,3.564-7.281,6.212l2.75,1.834
		l-0.306,0.509c-1.833,2.784-2.75,5.84-2.75,9.167c0,2.309,0.423,4.48,1.273,6.518c0.848,2.037,2.02,3.818,3.514,5.346
		c1.493,1.527,3.241,2.75,5.245,3.666c2.002,0.918,4.125,1.41,6.365,1.477v-35.134h0.611c2.511,0,4.871,0.476,7.078,1.426
		c2.206,0.951,4.14,2.24,5.805,3.87c1.663,1.629,2.969,3.548,3.921,5.754c0.95,2.208,1.426,4.567,1.426,7.079
		c0,2.443-0.458,4.77-1.375,6.975c-0.917,2.207-2.173,4.125-3.768,5.754c-1.596,1.631-3.462,2.938-5.601,3.922
		s-4.43,1.512-6.874,1.578v11.814c2.172-0.137,4.14-0.373,5.907-0.713c4.14-0.883,7.908-2.562,11.304-5.041
		c3.394-2.479,6.177-5.551,8.351-9.217c2.714-4.686,4.073-9.742,4.073-15.176v-0.508L229.059,407.285z M193.415,442.115
		c4.685,0,9.097-0.883,13.239-2.648c4.14-1.766,7.773-4.176,10.897-7.23c3.122-3.057,5.601-6.637,7.434-10.744
		c1.833-4.107,2.783-8.504,2.852-13.189h-3.055c-0.068,2.717-0.458,5.348-1.171,7.893c-0.713,2.547-1.749,4.975-3.106,7.281
		c-2.24,3.805-5.143,6.977-8.708,9.523c-3.564,2.545-7.485,4.295-11.762,5.244c-1.087,0.271-2.174,0.459-3.259,0.561
		c-1.086,0.102-2.207,0.152-3.36,0.152h-0.713v-12.934c-2.444-0.066-4.736-0.594-6.875-1.578s-4.007-2.291-5.601-3.922
		c-1.596-1.629-2.852-3.547-3.768-5.754c-0.917-2.205-1.375-4.531-1.375-6.975c0-3.326,0.882-6.451,2.648-9.371l-1.731-1.12
		c-2.105,3.396-3.157,7.028-3.157,10.897c0,2.717,0.492,5.297,1.477,7.74c0.983,2.443,2.46,4.617,4.43,6.518l0.407,0.51
		l-7.536,7.332l-0.408-0.408l-0.102-0.102c-2.581-2.51-4.618-5.379-6.11-8.605c-1.494-3.223-2.444-6.533-2.852-9.93
		c-0.408-3.393-0.255-6.822,0.458-10.286c0.713-3.462,2.02-6.721,3.921-9.776l-2.444-1.527c-3.396,5.433-5.092,11.441-5.092,18.025
		c0,4.754,0.899,9.217,2.699,13.393c1.798,4.176,4.26,7.826,7.383,10.947c3.122,3.125,6.772,5.586,10.948,7.385
		C184.198,441.215,188.661,442.115,193.415,442.115z M167.547,391.907c-1.766,2.92-2.988,6.009-3.667,9.267
		c-0.679,3.26-0.85,6.518-0.509,9.777c0.339,3.26,1.205,6.4,2.597,9.42c1.391,3.021,3.275,5.754,5.652,8.199l5.805-5.703
		c-1.901-1.969-3.345-4.209-4.328-6.723c-0.985-2.51-1.477-5.158-1.477-7.943c0-4.074,1.12-7.909,3.361-11.507L167.547,391.907z
		 M171.926,386.204c-0.748,0.748-1.426,1.512-2.037,2.292c-0.611,0.781-1.188,1.578-1.731,2.393l7.435,4.787
		c2.037-2.852,4.599-5.075,7.689-6.671c3.088-1.595,6.398-2.394,9.93-2.394c3.801,0,7.333,0.917,10.591,2.75l3.972-5.602
		c-3.055-1.833-6.314-3.055-9.777-3.666h-0.305c-0.476-0.066-1.189-0.135-2.139-0.203c-0.952-0.067-1.935-0.103-2.954-0.103
		c-0.611,0-1.171,0-1.68,0s-0.968,0.068-1.375,0.204c-1.019,0.068-2.105,0.271-3.259,0.611l-0.509,0.203l-0.713-2.24
		C180.038,379.924,175.659,382.47,171.926,386.204z M171.111,429.791l0.102,0.102l0.306-0.508L171.111,429.791z M193.415,373.27
		c-1.359,0-2.734,0.086-4.125,0.255c-1.393,0.17-2.768,0.425-4.125,0.764l0.814,2.75c2.511-0.543,4.955-0.815,7.333-0.815
		c5.974,0,11.473,1.562,16.498,4.685c0.408-0.542,0.764-1.018,1.069-1.426c0.306-0.407,0.525-0.746,0.662-1.018
		C206.109,375.001,200.067,373.27,193.415,373.27z M209.098,381.825c-4.821-2.918-10.082-4.379-15.785-4.379
		c-1.155,0-2.326,0.051-3.514,0.152c-1.188,0.102-2.36,0.323-3.513,0.662l0.305,1.019c0.475-0.136,0.933-0.237,1.375-0.306
		c0.441-0.066,0.899-0.136,1.375-0.204c0.474-0.066,0.983-0.117,1.527-0.152c0.543-0.033,1.121-0.051,1.731-0.051
		c1.085,0,2.104,0.035,3.055,0.102c0.95,0.068,1.696,0.137,2.241,0.204l0.305,0.102c3.802,0.611,7.231,1.868,10.286,3.768
		L209.098,381.825z M193.924,424.801c2.24-0.066,4.361-0.559,6.365-1.477c2.002-0.916,3.75-2.139,5.245-3.666
		c1.493-1.527,2.664-3.309,3.514-5.346c0.848-2.037,1.273-4.209,1.273-6.518s-0.425-4.465-1.273-6.469
		c-0.85-2-2.021-3.767-3.514-5.294c-1.494-1.528-3.243-2.75-5.245-3.667c-2.003-0.916-4.125-1.441-6.365-1.578V424.801z
		 M214.496,386.102c-1.291-1.289-2.75-2.478-4.379-3.564l-0.611,0.916c1.629,1.087,3.088,2.276,4.379,3.564
		c1.629,1.63,2.918,3.26,3.87,4.889l1.019-0.509c-0.544-0.95-1.171-1.85-1.884-2.699c-0.713-0.848-1.443-1.681-2.189-2.495
		L214.496,386.102z"/>
</g>
<g>
	<path fill="#FFFFFF" stroke="#FFFFFF" stroke-miterlimit="10" d="M243.436,443.336v-4.684h-4.685v-66.604h11.508v13.239h5.194
		v45.115h34.32v12.934H243.436z M243.436,437.328v-52.143h5.602v-12.017h-9.064v64.16H243.436z M254.231,437.328v-5.795h-5.194
		v-45.024h-4.379v50.819H254.231z M288.653,442.115v-10.49h-33.2v7.027h-10.795v3.463H288.653z M254.231,430.402v-43.893h-3.972
		v43.893H254.231z"/>
</g>
<g>
	<path fill="#FFFFFF" stroke="#FFFFFF" stroke-miterlimit="10" d="M306.042,443.338v-4.578h-2.546v-22.074l-24.849-40.484h3.768
		l-2.546-4.151h60.697l-3.972,6.416h6.518l-23.22,37.885v26.987H306.042z M306.042,437.533v-21.488l6.824-10.999l-2.75-4.481
		l-6.314,10.286l-20.674-33.403h-2.24l23.831,38.838v21.248H306.042z M296.469,376.144l13.646,22.079l12.017-19.738h13.036
		l3.259-5.189h-56.42l1.731,2.849H296.469z M303.801,408.509l5.601-9.136l-13.545-21.926h-11.304L303.801,408.509z M318.67,442.116
		v-26.071l0.102-0.103l22.201-36.255h-5.092l-22.405,36.663v22.404h-6.212v3.361H318.67z M312.254,437.533v-21.488l0.102-0.103
		l22.099-36.255h-11.61l-12.017,19.655l3.463,5.703l-7.027,11.305v21.183H312.254z"/>
</g>
<g>
	<path fill="#FFFFFF" stroke="#FFFFFF" stroke-miterlimit="10" d="M378.469,443.338v-26.683h-4.074v26.683h-5.5v-26.683h-8.351
		V372.05h19.146v30.857h25.155v-23.016h5.703v-7.842h8.453v7.842h3.869V435.7h-3.869v7.638h-0.611H378.469z M368.896,415.434
		v-32.996h6.823v20.47h2.852v-29.636h-16.804v42.162H368.896z M373.173,415.434v-4.379l5.296,0.102v-7.129h-4.074v-20.47h-4.379
		v31.876H373.173z M373.173,442.218v-25.562h-3.157v25.562H373.173z M378.469,415.434v-3.157h-4.074v3.157H378.469z
		 M379.691,411.055l25.155,0.203v-7.23h-25.155v7.129V411.055z M417.881,442.218V435.7h-5.193v-23.424h-6.62v4.379h-26.376v25.562
		H417.881z M404.846,415.434v-3.157h-25.155v3.157H404.846z M417.881,434.478v-53.466h-6.212v23.016h-5.602v7.129h7.638v23.321
		H417.881z M410.549,402.907v-21.896h-4.481v21.896H410.549z M417.881,379.892v-6.62h-6.212v6.62H417.881z M421.751,434.478v-53.466
		h-2.749v53.466H421.751z"/>
</g>
<g>
	<path fill="#FFFFFF" stroke="#FFFFFF" stroke-miterlimit="10" d="M428.832,443.338l24.238-57.54h4.073l2.749-6.518h5.297
		l3.055-7.23h6.518l2.953,7.23h3.667l26.987,64.058h-18.738l-4.99-11.915h-26.988l-4.684,11.915H428.832z M452.153,442.116
		l4.277-10.693H443.09l6.518-15.378h-4.889l11.916-29.025h-2.75l-23.22,55.097H452.153z M456.838,430.2l3.055-7.638h21.184
		l-2.75-6.518h-27.395l-6.009,14.155H456.838z M446.553,414.822h3.564l11.711-27.803h-3.87L446.553,414.822z M451.44,414.822h26.377
		l-11.406-27.803h-3.259L451.44,414.822z M484.131,430.2l-2.647-6.416h-20.775l-2.546,6.416H484.131z M464.68,380.502h-3.972
		l-2.241,5.296h3.973L464.68,380.502z M494.315,422.562l-17.313-42.061h-10.998l-2.343,5.296h3.564l11.915,29.024h6.416l3.158,7.74
		H494.315z M476.493,379.28l-2.546-6.009h-4.889l-2.546,6.009H476.493z M506.639,442.116l-26.072-61.614h-2.342l17.822,43.282
		h-6.824l3.158,7.639h-6.416l4.379,10.693H506.639z M484.742,416.045h-5.092l2.648,6.518h5.092L484.742,416.045z M490.547,430.2
		l-2.647-6.416h-5.092l2.647,6.416H490.547z"/>
</g>
<g>
	<path fill="#FFFFFF" stroke="#FFFFFF" stroke-miterlimit="10" d="M546.531,443.336c-3.87,0-7.605-0.594-11.203-1.782
		c-3.6-1.188-6.891-2.852-9.878-4.99c-2.989-2.139-5.585-4.735-7.791-7.791c-2.207-3.055-3.921-6.416-5.144-10.082l-0.102-0.611
		l10.286-3.36c-0.341-1.153-0.595-2.308-0.764-3.463c-0.171-1.153-0.255-2.307-0.255-3.462c0-2.852,0.492-5.617,1.477-8.301
		c0.984-2.681,2.358-5.107,4.125-7.281l-8.352-7.129l0.408-0.407c3.395-4.073,7.45-7.195,12.17-9.369
		c4.718-2.172,9.726-3.259,15.021-3.259c4.752,0,9.283,0.883,13.596,2.647c4.311,1.767,8.163,4.379,11.559,7.842l0.408,0.407
		l-10.389,10.388l-0.407-0.407c-4.073-4.073-8.997-6.11-14.767-6.11c-3.124,0-6.077,0.629-8.86,1.884
		c-2.784,1.257-5.161,3.073-7.129,5.448c-1.63,1.902-2.887,4.023-3.769,6.365c-0.883,2.343-1.323,4.771-1.323,7.282
		c0,2.309,0.339,4.447,1.019,6.416c0.678,2.173,1.68,4.159,3.004,5.957c1.324,1.8,2.852,3.345,4.583,4.634
		c1.731,1.291,3.666,2.292,5.805,3.005s4.362,1.069,6.671,1.069c2.918,0,5.602-0.543,8.045-1.63
		c2.512-1.019,4.787-2.546,6.824-4.583l0.509-0.407l10.185,10.286l-0.408,0.407c-3.259,3.259-7.096,5.84-11.508,7.74
		C555.697,442.454,551.147,443.336,546.531,443.336z M513.84,418.895c1.223,3.462,2.902,6.637,5.041,9.521
		c2.139,2.887,4.635,5.347,7.486,7.384s5.99,3.615,9.42,4.735c3.428,1.12,7.01,1.681,10.744,1.681c4.48,0,8.859-0.882,13.137-2.648
		c2.037-0.814,3.955-1.815,5.754-3.004c1.799-1.188,3.479-2.528,5.041-4.022l-8.656-8.656c-1.97,1.97-4.21,3.462-6.721,4.48
		c-2.852,1.155-5.703,1.731-8.555,1.731c-2.444,0-4.787-0.372-7.027-1.12c-2.24-0.746-4.295-1.815-6.161-3.208
		c-1.868-1.391-3.497-3.038-4.889-4.939c-1.392-1.9-2.462-4.005-3.208-6.314c-0.34-1.085-0.595-2.189-0.764-3.31
		c-0.17-1.12-0.254-2.256-0.254-3.411c0-2.648,0.457-5.21,1.374-7.689c0.917-2.478,2.257-4.735,4.022-6.772
		c2.104-2.444,4.635-4.344,7.588-5.703c2.953-1.357,6.059-2.037,9.318-2.037c2.852,0,5.584,0.51,8.197,1.528s4.939,2.513,6.977,4.48
		l8.758-8.656c-3.258-3.19-6.941-5.602-11.049-7.23c-4.109-1.63-8.402-2.444-12.883-2.444c-5.025,0-9.777,1.019-14.258,3.056
		c-4.48,2.036-8.352,4.923-11.609,8.656l8.351,7.026l-0.407,0.51c-1.834,2.174-3.243,4.549-4.227,7.129
		c-0.985,2.581-1.477,5.296-1.477,8.147c0,2.377,0.372,4.753,1.12,7.129l0.204,0.61L513.84,418.895z M546.633,439.364
		c-4.346,0-8.438-0.831-12.271-2.495c-3.837-1.663-7.18-3.921-10.031-6.772s-5.109-6.194-6.773-10.031
		c-1.664-3.835-2.494-7.926-2.494-12.271c0-4.345,0.83-8.418,2.494-12.222c1.664-3.801,3.922-7.129,6.773-9.98
		s6.194-5.107,10.031-6.771c3.834-1.663,7.926-2.495,12.271-2.495c4.344,0,8.418,0.832,12.221,2.495
		c3.802,1.664,7.129,3.92,9.98,6.771s5.107,6.18,6.772,9.98c1.663,3.804,2.495,7.877,2.495,12.222c0,4.346-0.832,8.437-2.495,12.271
		c-1.665,3.837-3.921,7.18-6.772,10.031s-6.179,5.109-9.98,6.772C555.051,438.533,550.977,439.364,546.633,439.364z
		 M546.633,377.445c-4.211,0-8.146,0.8-11.813,2.397s-6.874,3.757-9.624,6.479c-2.75,2.721-4.924,5.934-6.518,9.64
		c-1.596,3.706-2.394,7.633-2.394,11.781c0,4.217,0.798,8.162,2.394,11.835c1.594,3.672,3.768,6.885,6.518,9.64
		c2.75,2.754,5.957,4.932,9.624,6.529c3.667,1.597,7.603,2.396,11.813,2.396c4.141,0,8.062-0.799,11.763-2.396
		c3.7-1.598,6.907-3.775,9.624-6.529c2.715-2.755,4.871-5.968,6.467-9.64c1.594-3.673,2.393-7.618,2.393-11.835
		c0-4.148-0.799-8.075-2.393-11.781c-1.596-3.706-3.752-6.919-6.467-9.64c-2.717-2.722-5.924-4.881-9.624-6.479
		C554.694,378.245,550.773,377.445,546.633,377.445z"/>
</g>
<g>
	<path fill="#FFFFFF" stroke="#FFFFFF" stroke-miterlimit="10" d="M625.309,402.907l25.154,36.662h-8.146l2.647,3.87h-47.255v-3.87
		h-13.137l-0.102-67.418h14.461v2.24h6.314v24.544l16.09-17.721h8.352l8.147-9.063h15.479L625.309,402.907z M597.709,438.449
		v-14.562l-6.619,7.23v-56.726h6.619v-1.019h-12.017l0.103,65.076H597.709z M597.709,416.351l6.314-6.926v-7.332l-6.314,6.925
		v-33.403h-5.396v52.346l5.396-5.907V416.351z M598.932,375.614v30.246l5.092-5.602v-24.645H598.932z M642.723,442.218l-1.832-2.648
		h-5.703l-20.878-30.246l7.944-8.759l-1.426-2.139l-15.582,17.109v24.034h-0.611h-5.703v2.648H642.723z M604.023,411.258
		l-5.092,5.602v3.87l5.092-5.602V411.258z M598.932,422.562v15.887h5.092v-21.488L598.932,422.562z M605.246,409.832v3.972
		l15.684-17.312l2.139,3.157l15.785-17.211h-8.656L605.246,409.832z M605.246,400.769v7.332l23.321-25.663h-6.722L605.246,400.769z
		 M623.781,402.806l-0.814-1.223l-7.027,7.842l19.858,29.024h4.277l-20.877-30.552L623.781,402.806z M641.501,438.449h6.722
		l-23.729-34.626l-3.769,4.176L641.501,438.449z M638.344,373.373l-7.027,7.842h10.185l-17.72,19.452l0.916,1.222l25.867-28.516
		H638.344z"/>
</g>
</svg>
