<?xml version="1.0" encoding="utf-8"?>
<!-- Generator: Adobe Illustrator 19.1.0, SVG Export Plug-In . SVG Version: 6.00 Build 0)  -->
<svg version="1.1" id="Capa_1" xmlns="http://www.w3.org/2000/svg" xmlns:xlink="http://www.w3.org/1999/xlink" x="0px" y="0px"
	 viewBox="-163 255.1 283.9 283.9" style="enable-background:new -163 255.1 283.9 283.9;" xml:space="preserve">
<style type="text/css">
	.st0{fill:#FFFFFF;}
</style>
<g>
	<path class="st0" d="M103.4,255.1H5.8c-9.6,0-17.5,7.9-17.5,17.5s7.9,17.5,17.5,17.5h55.4l-92.4,92.4c-3.3,3.3-5.1,7.7-5.1,12.4
		s1.8,9.1,5.1,12.4c3.3,3.3,7.7,5.1,12.4,5.1c4.7,0,9.1-1.8,12.4-5.1l92.4-92.4v55.4c0,9.6,7.9,17.5,17.5,17.5s17.5-7.9,17.5-17.5
		v-97.6C120.9,262.9,113.1,255.1,103.4,255.1z"/>
	<path class="st0" d="M38.1,509H-133V337.9H-4.3l30-30H-148c-8.3,0-15,6.7-15,15V524c0,8.3,6.7,15,15,15H53.1c8.3,0,15-6.7,15-15
		V350.3l-30,30V509z"/>
</g>
</svg>
