<?xml version="1.0" encoding="utf-8"?>
<!-- Generator: Adobe Illustrator 19.1.0, SVG Export Plug-In . SVG Version: 6.00 Build 0)  -->
<svg version="1.1" id="Layer_1" xmlns="http://www.w3.org/2000/svg" xmlns:xlink="http://www.w3.org/1999/xlink" x="0px" y="0px"
	 viewBox="0 0 427 369.7" style="enable-background:new 0 0 427 369.7;" xml:space="preserve">
<style type="text/css">
	.st0{fill:#B090C3;}
	.st1{fill:#A782B9;}
	.st2{fill:#8A619C;}
	.st3{fill:#966FA9;}
	.st4{fill:#E37140;}
	.st5{fill:#805892;}
	.st6{fill:#8B649E;}
	.st7{fill:#F7986A;}
	.st8{fill:#F18758;}
	.st9{fill:#D56231;}
	.st10{fill:#C95929;}
	.st11{fill:#38A590;}
	.st12{fill:#2B9984;}
	.st13{fill:#1A8777;}
	.st14{fill:#010101;stroke:#FFFFFF;stroke-width:1.5;}
</style>
<polygon class="st0" points="133.4,184.8 106.8,138.6 160.1,138.6 "/>
<polygon class="st1" points="160.1,138.6 106.8,138.6 133.4,92.4 "/>
<polygon class="st2" points="106.8,231 53.4,231 80.1,184.8 "/>
<polygon class="st3" points="133.4,277.3 80.1,277.3 106.8,231 "/>
<polygon class="st0" points="160.1,231 106.8,231 133.4,184.8 "/>
<polygon class="st1" points="133.4,184.8 80.1,184.8 106.8,138.6 "/>
<polygon class="st4" points="320.3,231 266.9,231 293.6,184.8 "/>
<polygon class="st1" points="133.4,184.8 106.8,231 80.1,184.8 "/>
<polygon class="st5" points="106.8,231 80.1,277.3 53.4,231 "/>
<polygon class="st5" points="133.4,277.3 106.8,323.5 80.1,277.3 "/>
<polygon class="st1" points="213.5,138.6 186.8,92.4 240.2,92.4 "/>
<polygon class="st0" points="186.8,92.4 133.4,92.4 160.1,46.2 "/>
<polygon class="st3" points="213.5,138.7 160.1,138.7 186.8,92.4 "/>
<polygon class="st1" points="213.5,46.2 160.1,46.2 186.8,0 "/>
<polygon class="st0" points="240.2,92.4 186.8,92.4 213.5,46.2 "/>
<polygon class="st1" points="213.5,46.2 186.8,92.4 160.1,46.2 "/>
<polygon class="st5" points="186.8,92.4 160.1,138.7 133.4,92.4 "/>
<polygon class="st1" points="240.2,184.8 186.8,184.8 213.5,138.6 "/>
<polygon class="st3" points="186.8,184.8 160.1,231 133.4,184.8 "/>
<polygon class="st0" points="213.5,138.6 186.8,184.8 160.1,138.6 "/>
<polygon class="st1" points="160.1,138.6 186.8,184.8 133.4,184.8 "/>
<polygon class="st5" points="186.8,184.8 213.5,231 160.1,231 "/>
<polygon class="st3" points="213.5,231 186.8,184.8 240.2,184.8 "/>
<polygon class="st6" points="186.8,277.3 160.1,231 213.5,231 "/>
<polygon class="st7" points="240.2,277.3 213.5,231 266.9,231 "/>
<polygon class="st8" points="266.9,231 213.5,231 240.2,184.8 "/>
<polygon class="st4" points="293.6,184.8 266.9,138.6 320.3,138.6 "/>
<polygon class="st9" points="266.9,231 240.2,184.8 293.6,184.8 "/>
<polygon class="st7" points="320.3,231 293.6,184.8 347,184.8 "/>
<polygon class="st8" points="347,184.8 293.6,184.8 320.3,138.6 "/>
<polygon class="st4" points="293.6,184.8 240.2,184.8 266.9,138.5 "/>
<polygon class="st7" points="213.5,323.5 186.8,277.3 240.2,277.3 "/>
<polygon class="st8" points="266.9,138.6 293.6,92.3 320.3,138.6 "/>
<polygon class="st1" points="213.5,138.7 240.2,92.4 266.9,138.7 "/>
<polygon class="st7" points="320.3,138.6 293.6,92.3 347,92.3 "/>
<polygon class="st9" points="293.6,277.3 240.2,277.3 266.9,231 "/>
<polygon class="st4" points="240.2,277.3 186.8,277.3 213.5,231 "/>
<polygon class="st8" points="320.3,231 293.6,277.2 266.9,231 "/>
<polygon class="st10" points="293.6,277.3 266.9,323.5 240.2,277.3 "/>
<polygon class="st7" points="373.7,138.6 320.3,138.6 347,92.3 "/>
<polygon class="st4" points="347,92.3 293.6,92.3 320.3,46.1 "/>
<polygon class="st10" points="373.7,138.6 347,184.8 320.3,138.6 "/>
<polygon class="st8" points="240.2,277.3 266.9,323.5 213.5,323.5 "/>
<polygon class="st4" points="240.2,369.7 213.5,323.5 266.9,323.5 "/>
<polygon class="st5" points="266.9,138.6 213.5,138.6 240.2,184.8 "/>
<polygon class="st1" points="160.1,231 106.8,231 133.4,277.3 "/>
<polygon class="st11" points="53.4,231 26.7,184.8 80.1,184.8 "/>
<polygon class="st12" points="80.1,184.8 26.7,184.8 53.4,138.6 "/>
<polygon class="st13" points="80.1,184.8 53.4,138.6 106.8,138.6 "/>
<polygon class="st13" points="106.8,138.6 53.4,138.6 80.1,92.4 "/>
<polygon class="st12" points="400.3,184.7 373.6,138.5 427,138.5 "/>
<polygon class="st13" points="400.3,184.7 347,184.8 373.7,138.5 "/>
<polygon class="st11" points="427,138.5 373.6,138.5 400.3,92.3 "/>
<polygon class="st13" points="373.6,231 347,277.2 320.3,231 "/>
<polygon class="st11" points="400.3,184.7 373.6,231 347,184.7 "/>
<polygon class="st12" points="347,184.8 373.6,231 320.3,231 "/>
<polygon class="st11" points="26.7,277.3 0,231 53.4,231 "/>
<polygon class="st13" points="53.4,231 0,231 26.7,184.8 "/>
<g id="polyhack">
	<path class="st14" d="M20.2,210.8H8.9v-53.5h14.4c1.5,0,3.1,0,4.8,0c1.7,0,3.3,0.1,4.7,0.2c1.4,0.1,2.8,0.3,4,0.5
		c1.2,0.3,2.4,0.6,3.5,0.9c4.8,1.7,8,4.6,9.6,8.6c0.1,0.3,0.2,0.5,0.3,0.8c0.1,0.3,0.2,0.5,0.3,0.8c0.1,0.5,0.2,0.9,0.3,1.3
		c0.1,0.4,0.2,0.9,0.2,1.4c0.2,0.8,0.2,1.6,0.2,2.4v0.8c-0.1,3.7-1,7-2.8,9.8l-0.2,0.3l-3.1-1.8l0.3-0.4c1.4-2.4,2.1-5,2.1-7.9v-0.5
		c0-0.4,0-0.7,0-1c0-0.3-0.1-0.6-0.1-1c-0.1-0.8-0.3-1.5-0.5-2.1c-0.1-0.4-0.2-0.8-0.4-1.2c-1.3-3.3-3.9-5.7-7.6-7
		c-1.8-0.7-4-1.1-6.6-1.4c-0.6,0-1.3-0.1-2.1-0.1c-0.8,0-1.5,0-2.3,0c-0.8,0-1.6,0-2.4,0c-0.8,0-1.5,0-2.2,0H20h-6.2v21.4h1.1h4.4
		v-20h12.5c2.2,0.2,4.4,0.7,6.4,1.5c3.3,1.3,5.4,3.5,6.6,6.4c0.1,0.2,0.2,0.4,0.2,0.5c0,0.2,0.1,0.3,0.2,0.5c0.1,0.3,0.2,0.6,0.2,1
		c0,0.3,0.1,0.6,0.2,1c0,0.3,0.1,0.5,0.1,0.8c0,0.3,0,0.6,0,0.9v0.4c0,2.6-0.6,4.9-1.8,7c-0.4,0.7-0.9,1.3-1.5,2.1s-1.4,1.4-2.3,1.9
		c-0.9,0.6-2,1.1-3.3,1.5c-1.3,0.4-2.7,0.6-4.4,0.7c-0.4,0-0.8,0-1.4,0c-0.6,0-1.3,0-2.2,0h-3.9c-0.6,0-1.2,0-1.8-0.1h-0.5v-5.3
		h-2.4L20.2,210.8L20.2,210.8L20.2,210.8z M9.8,209.9h9.5v-27h-4.4h-2v-23.2H26c1.1,0,2.2,0,3.4,0c1.1,0,2.1,0.1,3,0.1
		c1.3,0.1,2.6,0.3,3.7,0.5c1.1,0.3,2.2,0.6,3.2,0.9c4,1.4,6.7,3.9,8.2,7.6c0.2,0.5,0.3,0.9,0.4,1.3c0.2,0.7,0.4,1.4,0.5,2.3
		c0.1,0.3,0.2,0.6,0.2,1c0,0.3,0,0.7,0.1,1.1v0.5c-0.1,3.1-0.8,5.7-2.1,8l1.5,0.9c1.6-2.5,2.4-5.5,2.4-8.9v-0.6c0-0.4,0-0.8,0-1.2
		c0-0.4-0.1-0.8-0.1-1.2c-0.1-0.5-0.2-0.9-0.3-1.3c-0.1-0.4-0.2-0.8-0.3-1.2c-0.1-0.3-0.2-0.5-0.3-0.8c-0.1-0.3-0.2-0.5-0.3-0.7
		c-1.5-3.9-4.6-6.6-9.1-8.1c-2-0.7-4.4-1.2-7.3-1.5c-1.4-0.1-2.9-0.2-4.6-0.2c-1.7,0-3.3,0-4.8,0H9.8V209.9z M23.4,187.2
		c0.5,0,1.2,0,2.2,0c1,0,2,0,3.1,0c0.9,0,1.6,0,2.1,0c0.6,0,1,0,1.5-0.1c1.6,0,3-0.3,4.1-0.6c1.2-0.4,2.2-0.8,3.1-1.4
		c0.9-0.5,1.6-1.1,2.2-1.8c0.6-0.7,1.1-1.3,1.4-1.9c0.6-0.9,1-1.9,1.2-3.1c0.3-1.1,0.4-2.3,0.5-3.4c0-0.2,0-0.3-0.1-0.4
		c0-0.3,0-0.5,0-0.8c0-0.3,0-0.5-0.1-0.8c-0.1-0.5-0.2-1.1-0.4-1.8c-0.1-0.5-0.2-0.9-0.3-1.1c-1.1-2.7-3.1-4.7-6-5.9
		c-1.1-0.4-2.1-0.7-3.1-1c-1-0.3-2-0.4-3-0.5H20.2v19.2h2.4v-14.4H23c2.1,0,3.9,0,5.2,0c1.3,0,2.2,0,2.6,0.1
		c1.9,0.2,3.6,0.6,4.9,1.5c2,1.3,3.1,3.2,3.1,5.9c0.1,1.1-0.1,2.2-0.5,3.3c-1.2,2.9-3.6,4.4-7.2,4.6h-4.7h-2.8L23.4,187.2
		L23.4,187.2z M23.4,181.9h2.8h4.7c2,0,3.4-0.5,4.4-1.4c0.9-0.9,1.6-1.7,1.9-2.6c0.4-0.9,0.5-1.8,0.5-2.9V175
		c-0.1-2.4-1-4.1-2.7-5.1c-1.2-0.7-2.7-1.1-4.5-1.3c-0.3,0-0.9-0.1-1.9-0.1c-1,0-2.8,0-5.3,0C23.4,168.5,23.4,181.9,23.4,181.9z"/>
	<path class="st14" d="M107.8,183.8v0.4c0,3.7-0.7,7.2-2.1,10.4c-1.4,3.2-3.3,6-5.8,8.5c-2.4,2.4-5.3,4.4-8.5,5.7
		c-3.2,1.4-6.7,2.1-10.4,2.1c-3.7,0-7.1-0.7-10.4-2.1c-3.3-1.4-6.1-3.3-8.5-5.7c-2.4-2.4-4.3-5.3-5.7-8.5c-1.4-3.3-2.1-6.7-2.1-10.4
		c0-5.2,1.4-10,4.2-14.4l0.3-0.4l2.6,1.7c0.8-1.2,1.8-2.4,2.9-3.6c3-2.9,6.4-4.9,10.2-6l-0.8-3l0.5-0.1c2.2-0.6,4.5-0.9,6.9-0.9
		c3.6,0,7.1,0.7,10.5,2.1c0.4,0.2,0.8,0.3,1.2,0.6s0.9,0.5,1.3,0.7c0.4,0.3,0.8,0.5,1.2,0.7c0.4,0.2,0.6,0.4,0.7,0.5
		c-0.1,0.1-0.1,0.1-0.2,0.2c-0.1,0.1-0.3,0.4-0.6,0.9l-1.1,1.5c1.3,0.9,2.5,1.9,3.5,2.9l0.2,0.2c1.3,1.3,2.4,2.8,3.4,4.3l0.2,0.5
		l-2.4,1.1l-0.2-0.3c-0.9-1.4-1.9-2.7-3-3.8c-1.1-1.1-2.1-2-3.2-2.7l-3.5,4.9l-0.4-0.2c-1.2-0.7-2.4-1.2-3.7-1.6
		c-1.3-0.3-2.7-0.5-4-0.5c-2.5,0-4.8,0.6-7,1.7c-2.2,1.1-4,2.7-5.5,4.7l2.1,1.4l-0.2,0.4c-1.4,2.1-2.1,4.4-2.1,6.9
		c0,1.7,0.3,3.4,1,4.9c0.6,1.5,1.5,2.9,2.6,4c1.1,1.1,2.4,2.1,3.9,2.7c1.5,0.7,3.1,1.1,4.8,1.1v-26.4H81c1.9,0,3.7,0.4,5.3,1.1
		c1.7,0.7,3.1,1.7,4.4,2.9c1.2,1.2,2.2,2.7,2.9,4.3c0.7,1.7,1.1,3.4,1.1,5.3c0,1.8-0.3,3.6-1,5.2c-0.7,1.7-1.6,3.1-2.8,4.3
		c-1.2,1.2-2.6,2.2-4.2,2.9c-1.6,0.7-3.3,1.1-5.2,1.2v8.9c1.6-0.1,3.1-0.3,4.4-0.5c3.1-0.7,5.9-1.9,8.5-3.8c2.5-1.9,4.6-4.2,6.3-6.9
		c2-3.5,3.1-7.3,3.1-11.4v-0.4L107.8,183.8z M81.1,209.9c3.5,0,6.8-0.7,9.9-2c3.1-1.3,5.8-3.1,8.2-5.4c2.3-2.3,4.2-5,5.6-8.1
		c1.4-3.1,2.1-6.4,2.1-9.9h-2.3c-0.1,2-0.3,4-0.9,5.9c-0.5,1.9-1.3,3.7-2.3,5.5c-1.7,2.9-3.9,5.2-6.5,7.1c-2.7,1.9-5.6,3.2-8.8,3.9
		c-0.8,0.2-1.6,0.3-2.4,0.4c-0.8,0.1-1.7,0.1-2.5,0.1h-0.5v-9.7c-1.8,0-3.6-0.4-5.2-1.2c-1.6-0.7-3-1.7-4.2-2.9
		c-1.2-1.2-2.1-2.7-2.8-4.3c-0.7-1.7-1-3.4-1-5.2c0-2.5,0.7-4.8,2-7l-1.3-0.8c-1.6,2.5-2.4,5.3-2.4,8.2c0,2,0.4,4,1.1,5.8
		c0.7,1.8,1.8,3.5,3.3,4.9l0.3,0.4l-5.7,5.5l-0.3-0.3l-0.1-0.1c-1.9-1.9-3.5-4-4.6-6.5c-1.1-2.4-1.8-4.9-2.1-7.4
		c-0.3-2.5-0.2-5.1,0.3-7.7c0.5-2.6,1.5-5,2.9-7.3l-1.8-1.1c-2.5,4.1-3.8,8.6-3.8,13.5c0,3.6,0.7,6.9,2,10c1.3,3.1,3.2,5.9,5.5,8.2
		c2.3,2.3,5.1,4.2,8.2,5.5C74.1,209.2,77.5,209.9,81.1,209.9z M61.7,172.2c-1.3,2.2-2.2,4.5-2.8,7c-0.5,2.4-0.6,4.9-0.4,7.3
		c0.3,2.4,0.9,4.8,1.9,7.1c1,2.3,2.5,4.3,4.2,6.2l4.4-4.3c-1.4-1.5-2.5-3.2-3.2-5c-0.7-1.9-1.1-3.9-1.1-6c0-3.1,0.8-5.9,2.5-8.6
		L61.7,172.2z M64.9,168c-0.6,0.6-1.1,1.1-1.5,1.7c-0.5,0.6-0.9,1.2-1.3,1.8l5.6,3.6c1.5-2.1,3.4-3.8,5.8-5c2.3-1.2,4.8-1.8,7.4-1.8
		c2.9,0,5.5,0.7,7.9,2.1l3-4.2c-2.3-1.4-4.7-2.3-7.3-2.7h-0.2c-0.4,0-0.9-0.1-1.6-0.2c-0.7-0.1-1.5-0.1-2.2-0.1c-0.5,0-0.9,0-1.3,0
		s-0.7,0.1-1,0.2c-0.8,0.1-1.6,0.2-2.4,0.5l-0.4,0.2l-0.5-1.7C71,163.2,67.7,165.2,64.9,168z M64.3,200.7L64.3,200.7l0.3-0.3
		L64.3,200.7z M81.1,158.3c-1,0-2.1,0.1-3.1,0.2c-1,0.1-2.1,0.3-3.1,0.6l0.6,2.1c1.9-0.4,3.7-0.6,5.5-0.6c4.5,0,8.6,1.2,12.4,3.5
		c0.3-0.4,0.6-0.8,0.8-1.1c0.2-0.3,0.4-0.6,0.5-0.8C90.6,159.6,86,158.3,81.1,158.3z M92.8,164.7c-3.6-2.2-7.6-3.3-11.8-3.3
		c-0.9,0-1.7,0-2.6,0.1c-0.9,0.1-1.8,0.2-2.6,0.5l0.2,0.8c0.4-0.1,0.7-0.2,1-0.2c0.3,0,0.7-0.1,1-0.2c0.4,0,0.7-0.1,1.1-0.1
		c0.4,0,0.8,0,1.3,0c0.8,0,1.6,0,2.3,0.1c0.7,0.1,1.3,0.1,1.7,0.2l0.2,0.1c2.9,0.5,5.4,1.4,7.7,2.8L92.8,164.7z M81.4,196.9
		c1.7,0,3.3-0.4,4.8-1.1c1.5-0.7,2.8-1.6,3.9-2.7c1.1-1.1,2-2.5,2.6-4c0.6-1.5,1-3.2,1-4.9c0-1.7-0.3-3.3-1-4.9
		c-0.6-1.5-1.5-2.8-2.6-4c-1.1-1.1-2.4-2.1-3.9-2.8c-1.5-0.7-3.1-1.1-4.8-1.2V196.9z M96.9,167.9c-1-1-2.1-1.9-3.3-2.7l-0.5,0.7
		c1.2,0.8,2.3,1.7,3.3,2.7c1.2,1.2,2.2,2.4,2.9,3.7l0.8-0.4c-0.4-0.7-0.9-1.4-1.4-2c-0.5-0.6-1.1-1.3-1.6-1.9L96.9,167.9z"/>
	<path class="st14" d="M118.6,210.8v-3.5h-3.5v-50h8.6v9.9h3.9v33.8h25.7v9.7H118.6z M118.6,206.3v-39.1h4.2v-9H116v48.1H118.6z
		 M126.7,206.3V202h-3.9v-33.8h-3.3v38.1H126.7z M152.5,209.9V202h-24.9v5.3h-8.1v2.6L152.5,209.9L152.5,209.9z M126.7,201.1v-32.9
		h-3v32.9H126.7z"/>
	<path class="st14" d="M165.5,210.8v-3.4h-1.9v-16.6L145,160.5h2.8l-1.9-3.1h45.5l-3,4.8h4.9l-17.4,28.4v20.2L165.5,210.8
		L165.5,210.8z M165.5,206.5v-16.1l5.1-8.3l-2.1-3.4l-4.7,7.7l-15.5-25.1h-1.7l17.9,29.1v15.9L165.5,206.5L165.5,206.5z
		 M158.4,160.4l10.2,16.6l9-14.8h9.8l2.4-3.9h-42.3l1.3,2.1L158.4,160.4L158.4,160.4z M163.9,184.7l4.2-6.9l-10.2-16.4h-8.5
		L163.9,184.7z M175,209.9v-19.6l0.1-0.1l16.7-27.2h-3.8l-16.8,27.5v16.8h-4.7v2.5L175,209.9L175,209.9z M170.2,206.5v-16.1l0.1-0.1
		l16.6-27.2h-8.7l-9,14.7l2.6,4.3l-5.3,8.5v15.9L170.2,206.5L170.2,206.5z"/>
	<path class="st14" d="M219.9,210.8v-20h-3.1v20h-4.1v-20h-6.3v-33.5h14.4v23.1h18.9v-17.3h4.3v-5.9h6.3v5.9h2.9v41.9h-2.9v5.7h-0.5
		H219.9z M212.7,189.9v-24.8h5.1v15.4h2.1v-22.2h-12.6v31.6H212.7z M215.9,189.9v-3.3l4,0.1v-5.3h-3.1V166h-3.3v23.9H215.9z
		 M215.9,210v-19.2h-2.4V210H215.9z M219.9,189.9v-2.4h-3.1v2.4H219.9z M220.8,186.6l18.9,0.2v-5.4h-18.9V186.6L220.8,186.6z
		 M249.4,210v-4.9h-3.9v-17.6h-5v3.3h-19.8V210L249.4,210L249.4,210z M239.7,189.9v-2.4h-18.9v2.4H239.7z M249.4,204.2v-40.1h-4.7
		v17.3h-4.2v5.3h5.7v17.5H249.4L249.4,204.2z M243.9,180.5v-16.4h-3.4v16.4H243.9z M249.4,163.2v-5h-4.7v5H249.4z M252.3,204.2
		v-40.1h-2.1v40.1H252.3z"/>
	<path class="st14" d="M257.6,210.8l18.2-43.2h3.1l2.1-4.9h4l2.3-5.4h4.9l2.2,5.4h2.8l20.2,48.1h-14.1l-3.7-8.9h-20.2l-3.5,8.9
		H257.6z M275.1,209.9l3.2-8h-10l4.9-11.5h-3.7l8.9-21.8h-2.1L259,209.9L275.1,209.9L275.1,209.9z M278.7,201l2.3-5.7h15.9l-2.1-4.9
		h-20.6l-4.5,10.6L278.7,201L278.7,201z M270.9,189.4h2.7l8.8-20.9h-2.9L270.9,189.4z M274.6,189.4h19.8l-8.6-20.9h-2.4L274.6,189.4
		z M299.1,201l-2-4.8h-15.6l-1.9,4.8H299.1z M284.5,163.7h-3l-1.7,4h3L284.5,163.7z M306.8,195.2l-13-31.6h-8.2l-1.8,4h2.7l8.9,21.8
		h4.8l2.4,5.8L306.8,195.2L306.8,195.2z M293.4,162.8l-1.9-4.5h-3.7l-1.9,4.5H293.4z M316,209.9l-19.6-46.2h-1.8l13.4,32.5h-5.1
		l2.4,5.7h-4.8l3.3,8L316,209.9L316,209.9z M299.6,190.3h-3.8l2,4.9h3.8L299.6,190.3z M303.9,201l-2-4.8h-3.8l2,4.8H303.9z"/>
	<path class="st14" d="M345.9,210.8c-2.9,0-5.7-0.4-8.4-1.3c-2.7-0.9-5.2-2.1-7.4-3.7c-2.2-1.6-4.2-3.6-5.8-5.8
		c-1.7-2.3-2.9-4.8-3.9-7.6l-0.1-0.5l7.7-2.5c-0.3-0.9-0.4-1.7-0.6-2.6c-0.1-0.9-0.2-1.7-0.2-2.6c0-2.1,0.4-4.2,1.1-6.2
		c0.7-2,1.8-3.8,3.1-5.5l-6.3-5.3l0.3-0.3c2.5-3.1,5.6-5.4,9.1-7c3.5-1.6,7.3-2.4,11.3-2.4c3.6,0,7,0.7,10.2,2
		c3.2,1.3,6.1,3.3,8.7,5.9l0.3,0.3l-7.8,7.8L357,173c-3.1-3.1-6.7-4.6-11.1-4.6c-2.3,0-4.6,0.5-6.6,1.4c-2.1,0.9-3.9,2.3-5.3,4.1
		c-1.2,1.4-2.2,3-2.8,4.8c-0.7,1.8-1,3.6-1,5.5c0,1.7,0.3,3.3,0.8,4.8c0.5,1.6,1.3,3.1,2.3,4.5c1,1.4,2.1,2.5,3.4,3.5
		c1.3,1,2.7,1.7,4.4,2.3c1.6,0.5,3.3,0.8,5,0.8c2.2,0,4.2-0.4,6-1.2c1.9-0.8,3.6-1.9,5.1-3.4l0.4-0.3l7.6,7.7l-0.3,0.3
		c-2.4,2.4-5.3,4.4-8.6,5.8C352.8,210.1,349.4,210.8,345.9,210.8z M321.4,192.5c0.9,2.6,2.2,5,3.8,7.1c1.6,2.2,3.5,4,5.6,5.5
		s4.5,2.7,7.1,3.6c2.6,0.8,5.3,1.3,8.1,1.3c3.4,0,6.6-0.7,9.9-2c1.5-0.6,3-1.4,4.3-2.3c1.3-0.9,2.6-1.9,3.8-3l-6.5-6.5
		c-1.5,1.5-3.2,2.6-5,3.4c-2.1,0.9-4.3,1.3-6.4,1.3c-1.8,0-3.6-0.3-5.3-0.8c-1.7-0.6-3.2-1.4-4.6-2.4c-1.4-1-2.6-2.3-3.7-3.7
		c-1-1.4-1.8-3-2.4-4.7c-0.3-0.8-0.4-1.6-0.6-2.5c-0.1-0.8-0.2-1.7-0.2-2.6c0-2,0.3-3.9,1-5.8c0.7-1.9,1.7-3.6,3-5.1
		c1.6-1.8,3.5-3.3,5.7-4.3c2.2-1,4.5-1.5,7-1.5c2.1,0,4.2,0.4,6.1,1.1c2,0.8,3.7,1.9,5.2,3.4l6.6-6.5c-2.4-2.4-5.2-4.2-8.3-5.4
		c-3.1-1.2-6.3-1.8-9.7-1.8c-3.8,0-7.3,0.8-10.7,2.3c-3.4,1.5-6.3,3.7-8.7,6.5l6.3,5.3l-0.3,0.4c-1.4,1.6-2.4,3.4-3.2,5.3
		c-0.7,1.9-1.1,4-1.1,6.1c0,1.8,0.3,3.6,0.8,5.3l0.2,0.5L321.4,192.5z M346,207.8c-3.3,0-6.3-0.6-9.2-1.9c-2.9-1.2-5.4-2.9-7.5-5.1
		c-2.1-2.1-3.8-4.6-5.1-7.5c-1.2-2.9-1.9-5.9-1.9-9.2s0.6-6.3,1.9-9.2c1.2-2.9,2.9-5.3,5.1-7.5c2.1-2.1,4.6-3.8,7.5-5.1
		c2.9-1.2,5.9-1.9,9.2-1.9c3.3,0,6.3,0.6,9.2,1.9c2.9,1.2,5.3,2.9,7.5,5.1c2.1,2.1,3.8,4.6,5.1,7.5c1.2,2.9,1.9,5.9,1.9,9.2
		c0,3.3-0.6,6.3-1.9,9.2c-1.2,2.9-2.9,5.4-5.1,7.5c-2.1,2.1-4.6,3.8-7.5,5.1C352.3,207.2,349.3,207.8,346,207.8z M346,161.4
		c-3.2,0-6.1,0.6-8.9,1.8c-2.8,1.2-5.2,2.8-7.2,4.9c-2.1,2-3.7,4.5-4.9,7.2c-1.2,2.8-1.8,5.7-1.8,8.8c0,3.2,0.6,6.1,1.8,8.9
		c1.2,2.8,2.8,5.2,4.9,7.2c2.1,2.1,4.5,3.7,7.2,4.9c2.8,1.2,5.7,1.8,8.9,1.8c3.1,0,6-0.6,8.8-1.8c2.8-1.2,5.2-2.8,7.2-4.9
		c2-2.1,3.7-4.5,4.9-7.2c1.2-2.8,1.8-5.7,1.8-8.9c0-3.1-0.6-6.1-1.8-8.8c-1.2-2.8-2.8-5.2-4.9-7.2c-2-2-4.4-3.7-7.2-4.9
		C352.1,162,349.1,161.4,346,161.4z"/>
	<path class="st14" d="M405,180.5l18.9,27.5h-6.1l2,2.9h-35.4V208h-9.9l-0.1-50.6h10.8v1.7h4.7v18.4l12.1-13.3h6.3l6.1-6.8H426
		L405,180.5z M384.3,207.1v-10.9l-5,5.4v-42.6h5v-0.8h-9l0.1,48.8L384.3,207.1L384.3,207.1z M384.3,190.6l4.7-5.2v-5.5l-4.7,5.2V160
		h-4v39.3l4-4.4V190.6z M385.2,160v22.7l3.8-4.2V160L385.2,160L385.2,160z M418.1,210l-1.4-2h-4.3l-15.7-22.7l6-6.6l-1.1-1.6
		L390,190v18h-0.5h-4.3v2L418.1,210L418.1,210z M389.1,186.7l-3.8,4.2v2.9l3.8-4.2V186.7z M385.2,195.2v11.9h3.8V191L385.2,195.2z
		 M390,185.7v3l11.8-13l1.6,2.4l11.8-12.9h-6.5L390,185.7z M390,178.9v5.5l17.5-19.3h-5L390,178.9z M403.9,180.4l-0.6-0.9l-5.3,5.9
		l14.9,21.8h3.2l-15.7-22.9L403.9,180.4z M417.2,207.1h5l-17.8-26l-2.8,3.1L417.2,207.1z M414.8,158.3l-5.3,5.9h7.6l-13.3,14.6
		l0.7,0.9l19.4-21.4H414.8z"/>
</g>
</svg>
